<?xml version="1.0" standalone="no"?>
<!DOCTYPE svg PUBLIC "-//W3C//DTD SVG 20010904//EN"
 "http://www.w3.org/TR/2001/REC-SVG-20010904/DTD/svg10.dtd">
<svg version="1.0" xmlns="http://www.w3.org/2000/svg"
 width="100.000000pt" height="100.000000pt" viewBox="0 0 100.000000 100.000000"
 preserveAspectRatio="xMidYMid meet">

<g transform="translate(0.000000,100.000000) scale(0.100000,-0.100000)"
fill="#000000" stroke="none">
<path d="M0 895 l0 -104 42 28 c83 55 231 66 316 24 63 -32 63 -40 0 -165 -32
-62 -75 -151 -96 -198 -38 -82 -123 -210 -140 -210 -24 0 -70 74 -103 164
l-18 51 0 -242 -1 -243 82 0 83 0 101 101 101 101 59 -12 c107 -23 178 -17
299 25 134 46 275 110 275 125 0 6 -13 4 -33 -6 -36 -19 -241 -104 -243 -101
-1 1 -4 23 -7 48 -6 44 -5 47 18 53 13 3 35 1 48 -5 19 -8 31 -8 53 4 16 8 57
18 92 22 34 4 65 12 68 17 9 14 -111 0 -158 -19 -28 -11 -41 -12 -57 -3 -17 8
-34 7 -77 -7 -49 -15 -60 -15 -102 -3 -26 8 -66 14 -90 14 l-43 0 6 56 c10 88
23 156 56 298 l32 134 79 -7 79 -7 -3 83 -3 84 -357 3 -358 2 0 -105z m571
-571 c26 -9 59 -13 80 -10 32 5 37 3 43 -17 11 -42 7 -75 -11 -81 -141 -39
-166 -31 -156 53 3 32 2 51 -4 51 -6 0 -13 -27 -17 -60 -8 -67 -14 -70 -89
-49 l-39 10 49 53 c64 71 76 75 144 50z"/>
<path d="M784 920 c22 -89 18 -86 120 -93 l58 -4 -6 51 c-3 28 -9 66 -13 85
-6 33 -5 34 26 29 17 -2 31 -1 31 4 0 4 -53 8 -118 8 l-119 0 21 -80z"/>
<path d="M150 801 c-47 -15 -88 -40 -115 -73 -24 -29 -26 -37 -21 -82 8 -65
60 -235 80 -261 l15 -20 20 20 c19 20 99 162 168 298 32 63 33 70 19 91 -21
33 -103 46 -166 27z"/>
<path d="M707 661 c-20 -15 -34 -31 -30 -35 3 -3 31 -6 62 -6 52 -1 167 -18
234 -35 15 -4 27 -3 27 2 0 12 -128 41 -221 49 -63 6 -70 9 -54 21 11 7 34 13
54 13 56 0 164 -21 189 -37 29 -18 45 -7 18 12 -24 18 -143 45 -199 45 -34 0
-53 -7 -80 -29z"/>
<path d="M930 443 c1 -5 16 -15 35 -24 37 -17 48 -6 18 17 -19 14 -53 19 -53
7z"/>
</g>
</svg>
