<?xml version="1.0" standalone="no"?>
<!DOCTYPE svg PUBLIC "-//W3C//DTD SVG 20010904//EN"
 "http://www.w3.org/TR/2001/REC-SVG-20010904/DTD/svg10.dtd">
<svg version="1.0" xmlns="http://www.w3.org/2000/svg"
 width="736.000000pt" height="736.000000pt" viewBox="0 0 736.000000 736.000000"
 preserveAspectRatio="xMidYMid meet">

<g transform="translate(0.000000,736.000000) scale(0.100000,-0.100000)"
fill="#000000" stroke="none">
<path d="M3680 7030 c-14 -5 -81 -25 -150 -45 -164 -49 -264 -103 -370 -201
-33 -31 -95 -69 -185 -114 -40 -20 -74 -43 -153 -101 -37 -27 -48 -31 -90 -27
-26 3 -76 18 -112 34 -61 27 -72 29 -190 28 -120 -2 -128 -3 -201 -37 -62 -29
-91 -50 -156 -119 -44 -45 -135 -141 -204 -213 -130 -136 -183 -206 -247 -327
-120 -226 -146 -274 -153 -278 -5 -3 -15 -24 -23 -45 -7 -22 -42 -98 -76 -170
-34 -71 -83 -175 -110 -230 -57 -119 -94 -220 -111 -295 -6 -30 -15 -59 -19
-65 -4 -5 -11 -25 -15 -43 -11 -55 29 -105 119 -146 58 -27 80 -44 104 -78 49
-71 90 -161 101 -220 9 -53 34 -98 105 -190 12 -15 31 -40 43 -56 32 -42 69
-141 83 -221 6 -39 20 -89 31 -110 10 -21 23 -58 28 -82 6 -24 19 -71 31 -103
23 -69 25 -92 7 -103 -8 -4 -22 -21 -32 -38 -10 -16 -39 -55 -65 -85 -84 -101
-107 -135 -149 -217 -23 -45 -46 -85 -51 -88 -5 -3 -29 -48 -54 -100 -51 -106
-56 -146 -27 -203 42 -82 232 -250 351 -311 132 -67 151 -78 207 -118 68 -49
97 -100 89 -156 -3 -23 -9 -77 -12 -121 -7 -84 -13 -65 72 -251 27 -59 28 -64
35 -335 5 -204 10 -285 21 -315 9 -22 25 -81 37 -132 42 -181 74 -223 222
-300 14 -7 75 -17 135 -22 88 -7 119 -14 160 -36 81 -42 115 -42 245 -2 63 19
130 38 149 42 19 4 53 18 75 30 49 28 77 33 235 46 69 5 142 12 162 15 36 6
41 3 110 -68 90 -92 139 -124 202 -133 46 -6 184 -65 196 -84 14 -21 150 -81
200 -87 30 -4 84 -17 119 -30 77 -29 144 -31 191 -5 19 10 68 26 108 35 41 9
96 28 123 43 75 39 158 127 204 219 22 43 49 90 61 104 31 38 94 144 94 158 0
7 9 30 19 51 11 21 24 67 29 102 5 35 20 91 32 124 19 50 24 90 30 245 6 160
10 191 28 226 48 93 117 116 209 69 26 -14 78 -32 115 -42 57 -15 75 -16 124
-5 78 16 114 38 171 103 103 120 124 219 71 331 -14 29 -42 91 -63 138 -103
240 -194 395 -286 489 -40 41 -115 134 -128 158 -6 12 -11 39 -11 60 0 68 55
138 242 308 84 77 92 89 113 179 7 34 23 94 34 135 12 41 21 94 21 118 0 23
11 86 25 139 14 53 25 107 25 120 0 14 13 59 29 102 16 42 32 88 36 102 12 40
64 127 81 134 9 3 39 6 67 6 37 0 70 9 114 29 51 24 66 37 84 73 32 63 38 100
28 181 -9 75 -21 110 -70 212 -16 33 -29 65 -29 72 0 7 -11 36 -24 65 -13 29
-27 71 -31 93 -6 40 -53 158 -81 205 -8 14 -22 40 -30 58 -16 37 -82 125 -143
192 -174 191 -224 242 -279 289 -60 51 -155 114 -197 131 -32 12 -117 73 -160
113 -22 21 -62 50 -88 65 -27 15 -62 34 -78 43 -43 25 -86 60 -173 144 -78 75
-187 155 -213 155 -7 0 -28 14 -46 30 -19 17 -38 30 -41 30 -4 0 -32 19 -63
42 -31 22 -91 59 -132 80 -42 22 -92 50 -111 63 -19 12 -68 45 -109 71 -219
145 -405 248 -497 273 -45 13 -108 13 -144 1z m-734 -1728 c26 -8 127 -100
143 -130 6 -11 11 -35 11 -52 0 -38 13 -64 56 -112 23 -26 35 -51 40 -85 5
-38 15 -55 45 -84 30 -27 39 -44 39 -68 0 -66 38 -115 208 -264 42 -37 43 -37
128 -37 l86 0 113 115 c93 94 115 122 121 153 8 49 30 82 54 82 29 0 40 -31
40 -117 0 -85 6 -99 75 -168 57 -57 85 -99 85 -126 0 -31 -15 -39 -75 -39 -39
0 -49 -5 -88 -45 -37 -37 -51 -45 -80 -45 -48 0 -80 -16 -100 -50 -17 -28 -50
-40 -110 -40 -22 0 -43 -13 -83 -50 -48 -45 -57 -50 -99 -50 -50 0 -42 6 -186
-147 -15 -15 -40 -40 -58 -54 -33 -29 -40 -64 -21 -113 13 -36 67 -36 100 -1
29 31 45 32 65 1 27 -41 72 -56 163 -53 l82 2 156 -160 c175 -181 204 -213
204 -225 0 -5 9 -12 21 -15 11 -4 36 -21 56 -38 34 -30 40 -32 122 -32 100 0
128 14 196 96 58 71 107 92 201 87 73 -3 76 -4 115 -46 22 -23 50 -44 62 -47
12 -3 78 -6 146 -8 105 -2 126 -5 135 -19 15 -24 1 -45 -117 -169 -114 -120
-192 -183 -219 -176 -22 6 -88 -11 -88 -22 0 -4 -14 -22 -31 -39 -31 -31 -33
-32 -123 -32 -90 0 -93 -1 -122 -31 -56 -59 -75 -64 -244 -66 -85 -1 -163 -2
-173 -2 -10 -1 -36 -19 -58 -41 -22 -22 -47 -40 -57 -40 -186 -5 -404 -5 -433
0 -23 4 -51 21 -75 44 -45 44 -69 51 -132 40 -26 -4 -54 -7 -62 -6 -8 1 -63 5
-121 7 l-106 4 -34 -45 c-41 -55 -75 -58 -99 -7 -8 17 -43 57 -77 87 -50 46
-68 56 -96 56 -52 0 -87 16 -123 58 -26 31 -41 38 -91 47 l-60 10 -197 204
c-187 195 -196 206 -196 244 0 31 -7 46 -36 75 -41 41 -54 69 -54 115 0 20
-13 51 -36 85 -35 51 -36 53 -18 67 29 21 82 28 102 13 10 -7 44 -41 75 -75
46 -50 57 -70 57 -96 0 -38 33 -88 98 -151 l40 -38 95 1 c99 2 143 -10 152
-39 12 -36 45 -60 85 -60 36 0 41 4 60 39 25 50 31 54 99 58 87 7 124 40 84
75 -46 40 -115 21 -143 -41 l-15 -33 -80 7 c-44 3 -84 10 -89 15 -11 11 6 36
71 109 45 50 52 54 103 58 52 5 58 9 119 70 58 60 64 70 71 121 6 48 12 60 44
85 20 16 36 36 36 44 0 8 -57 74 -127 145 -71 71 -138 139 -149 151 -101 104
-131 125 -188 132 -55 7 -58 10 -124 83 -93 104 -153 126 -209 78 l-28 -24 60
-63 c33 -35 71 -74 83 -86 21 -21 22 -26 10 -45 -8 -12 -32 -26 -54 -33 -21
-6 -51 -18 -65 -26 -32 -17 -109 -86 -109 -97 0 -5 -13 -20 -28 -35 -24 -23
-37 -27 -84 -27 -49 0 -59 3 -77 26 -13 17 -21 41 -21 65 0 32 -9 50 -45 95
l-45 55 0 174 0 174 45 51 c38 43 45 57 45 93 0 38 6 49 50 96 45 47 50 58 50
98 0 69 10 80 85 88 53 5 68 11 85 32 32 41 81 73 113 73 23 0 48 -19 123 -92
103 -101 111 -106 165 -107 32 -1 42 6 82 52 88 102 197 208 229 222 34 14
136 18 174 7z m1629 -1057 c52 -52 97 -106 101 -120 8 -31 -1 -69 -22 -89 -20
-20 -26 -20 -50 2 -62 58 -57 57 -350 57 -150 0 -274 2 -277 5 -2 3 -7 17 -11
32 -11 46 13 58 115 58 89 0 90 0 124 34 22 22 54 40 92 51 32 9 76 28 98 41
64 38 75 34 180 -71z m-2253 -155 c75 0 79 -1 115 -35 22 -21 51 -37 73 -40
45 -8 99 -34 110 -56 6 -10 5 -23 -4 -35 -12 -16 -28 -18 -121 -19 l-106 0
-27 32 c-46 53 -79 64 -214 66 -119 2 -121 2 -141 30 -17 21 -18 30 -8 40 14
14 125 27 196 21 28 -2 85 -4 127 -4z m1940 -95 c86 -5 107 -13 156 -58 31
-30 36 -31 122 -32 l89 -2 45 -41 c44 -41 53 -45 130 -57 72 -12 162 -135 125
-170 -11 -10 -46 -12 -157 -7 -142 7 -144 7 -164 35 -33 45 -55 52 -199 57
l-136 5 -41 37 c-23 21 -52 40 -64 43 -13 2 -103 6 -202 7 l-178 3 -33 38
c-34 39 -76 57 -132 57 -47 0 -60 30 -29 67 l24 28 283 -3 c156 -2 319 -5 361
-7z m958 -337 c0 -4 -9 -8 -20 -8 -11 0 -20 7 -20 15 0 8 5 15 11 15 5 0 7 6
4 13 -4 6 1 3 9 -7 9 -11 16 -23 16 -28z m474 -60 c39 -55 9 -119 -111 -237
-93 -91 -127 -111 -184 -111 -14 0 -36 -11 -48 -24 -30 -32 -79 -42 -97 -19
-37 49 -10 98 127 230 56 54 112 109 123 122 51 60 54 61 115 61 51 0 62 -3
75 -22z m-2654 -910 c22 -6 53 -30 83 -63 39 -43 50 -63 60 -115 11 -52 19
-67 52 -94 36 -31 39 -37 39 -89 1 -49 -3 -60 -29 -87 -27 -29 -97 -80 -110
-80 -10 0 -35 60 -35 84 0 16 -17 44 -45 76 -38 42 -45 57 -45 91 0 34 -6 47
-35 76 -20 20 -40 43 -44 52 -11 21 -24 137 -17 149 8 13 83 13 126 0z m779
-118 c21 -11 35 -67 25 -105 -4 -15 -19 -32 -38 -42 -37 -19 -46 -30 -46 -60
0 -83 -133 -234 -172 -195 -16 16 -28 100 -22 146 9 58 19 72 93 146 37 36 74
77 84 93 18 28 45 34 76 17z"/>
<path d="M3711 3438 c-31 -17 -48 -63 -30 -84 11 -13 26 -15 86 -9 l73 7 0
-25 c0 -28 30 -56 79 -77 26 -10 35 -10 63 7 18 10 40 31 48 46 13 24 13 29 0
37 -8 6 -33 8 -55 5 -22 -3 -62 1 -90 8 -42 11 -52 19 -70 53 -16 31 -26 40
-50 42 -17 1 -41 -3 -54 -10z"/>
<path d="M3042 3050 c-35 -14 -39 -40 -11 -62 13 -11 45 -39 71 -64 l47 -44
328 2 327 3 34 45 c19 24 47 53 63 62 36 22 36 33 3 54 -25 17 -26 17 -64 -24
l-38 -42 -258 0 c-143 0 -277 5 -299 10 -25 5 -49 20 -65 40 -21 26 -32 30
-70 29 -25 0 -55 -4 -68 -9z"/>
</g>
</svg>
